<svg xmlns="http://www.w3.org/2000/svg" xmlns:xlink="http://www.w3.org/1999/xlink" width="1000" zoomAndPan="magnify" viewBox="0 0 750 749.999995" height="1000" preserveAspectRatio="xMidYMid meet" version="1.0"><defs><clipPath id="cc74bd8067"><path d="M 300 185 L 515 185 L 515 385 L 300 385 Z M 300 185 " clip-rule="nonzero"/></clipPath><clipPath id="8b0a4ac636"><path d="M 367.011719 172.902344 L 526.578125 290.15625 L 447.996094 397.089844 L 288.433594 279.835938 Z M 367.011719 172.902344 " clip-rule="nonzero"/></clipPath><clipPath id="59ffe4060e"><path d="M 391.792969 191.109375 L 501.546875 271.765625 C 515.234375 281.820312 518.175781 301.070312 508.117188 314.753906 L 465.957031 372.128906 C 455.898438 385.8125 436.652344 388.753906 422.96875 378.699219 L 313.210938 298.042969 C 299.527344 287.988281 296.585938 268.742188 306.640625 255.054688 L 348.804688 197.679688 C 358.859375 183.996094 378.105469 181.054688 391.792969 191.109375 Z M 391.792969 191.109375 " clip-rule="nonzero"/></clipPath><clipPath id="7429ed19c4"><path d="M 0 0 L 215 0 L 215 200 L 0 200 Z M 0 0 " clip-rule="nonzero"/></clipPath><clipPath id="ece88d026e"><path d="M 67.011719 -12.097656 L 226.578125 105.15625 L 147.996094 212.089844 L -11.566406 94.835938 Z M 67.011719 -12.097656 " clip-rule="nonzero"/></clipPath><clipPath id="f3c7706669"><path d="M 91.792969 6.109375 L 201.546875 86.765625 C 215.234375 96.820312 218.175781 116.070312 208.117188 129.753906 L 165.957031 187.128906 C 155.898438 200.8125 136.652344 203.753906 122.96875 193.699219 L 13.210938 113.042969 C -0.472656 102.988281 -3.414062 83.742188 6.640625 70.054688 L 48.804688 12.679688 C 58.859375 -1.003906 78.105469 -3.945312 91.792969 6.109375 Z M 91.792969 6.109375 " clip-rule="nonzero"/></clipPath><clipPath id="5d80ec189e"><rect x="0" width="215" y="0" height="200"/></clipPath><clipPath id="564940be2b"><path d="M 309 204 L 495 204 L 495 381 L 309 381 Z M 309 204 " clip-rule="nonzero"/></clipPath><clipPath id="e4660d58c4"><path d="M 371.53125 195.585938 L 503.007812 292.203125 L 431.730469 389.203125 L 300.25 292.585938 Z M 371.53125 195.585938 " clip-rule="nonzero"/></clipPath><clipPath id="dd890bc565"><path d="M 389.660156 208.910156 L 484.878906 278.878906 C 494.890625 286.238281 497.042969 300.320312 489.683594 310.332031 L 445.050781 371.070312 C 437.695312 381.082031 423.609375 383.234375 413.597656 375.878906 L 318.382812 305.90625 C 308.367188 298.550781 306.214844 284.46875 313.574219 274.453125 L 358.207031 213.71875 C 365.566406 203.703125 379.648438 201.550781 389.660156 208.910156 Z M 389.660156 208.910156 " clip-rule="nonzero"/></clipPath><clipPath id="d94394ec78"><path d="M 0 0 L 186 0 L 186 177 L 0 177 Z M 0 0 " clip-rule="nonzero"/></clipPath><clipPath id="beb92de357"><path d="M 62.53125 -8.414062 L 194.007812 88.203125 L 122.730469 185.203125 L -8.75 88.585938 Z M 62.53125 -8.414062 " clip-rule="nonzero"/></clipPath><clipPath id="52cb9a17af"><path d="M 80.660156 4.910156 L 175.878906 74.878906 C 185.890625 82.238281 188.042969 96.320312 180.683594 106.332031 L 136.050781 167.070312 C 128.695312 177.082031 114.609375 179.234375 104.597656 171.878906 L 9.382812 101.90625 C -0.632812 94.550781 -2.785156 80.46875 4.574219 70.453125 L 49.207031 9.71875 C 56.566406 -0.296875 70.648438 -2.449219 80.660156 4.910156 Z M 80.660156 4.910156 " clip-rule="nonzero"/></clipPath><clipPath id="b11fad70f5"><rect x="0" width="186" y="0" height="177"/></clipPath><clipPath id="057ca9874c"><path d="M 88 199 L 515 199 L 515 648 L 88 648 Z M 88 199 " clip-rule="nonzero"/></clipPath><clipPath id="0ac535d224"><path d="M 300.984375 186.125 L 527.488281 352.570312 L 300.574219 661.355469 L 74.074219 494.910156 Z M 300.984375 186.125 " clip-rule="nonzero"/></clipPath><clipPath id="694ac068e4"><path d="M 328.179688 206.109375 L 500.289062 332.585938 C 515.308594 343.621094 518.539062 364.746094 507.5 379.765625 L 321.136719 633.375 C 310.097656 648.394531 288.976562 651.625 273.957031 640.585938 L 101.847656 514.113281 C 86.824219 503.074219 83.597656 481.949219 94.636719 466.929688 L 281 213.320312 C 292.035156 198.300781 313.160156 195.074219 328.179688 206.109375 Z M 328.179688 206.109375 " clip-rule="nonzero"/></clipPath><clipPath id="858d7c25fe"><path d="M 0 0 L 427 0 L 427 449 L 0 449 Z M 0 0 " clip-rule="nonzero"/></clipPath><clipPath id="7a37ae8df8"><path d="M 212.984375 -12.875 L 439.488281 153.570312 L 212.574219 462.355469 L -13.925781 295.910156 Z M 212.984375 -12.875 " clip-rule="nonzero"/></clipPath><clipPath id="857b380672"><path d="M 240.179688 7.109375 L 412.289062 133.585938 C 427.308594 144.621094 430.539062 165.746094 419.5 180.765625 L 233.136719 434.375 C 222.097656 449.394531 200.976562 452.625 185.957031 441.585938 L 13.847656 315.113281 C -1.175781 304.074219 -4.402344 282.949219 6.636719 267.929688 L 193 14.320312 C 204.035156 -0.699219 225.160156 -3.925781 240.179688 7.109375 Z M 240.179688 7.109375 " clip-rule="nonzero"/></clipPath><clipPath id="1f8daf23b8"><rect x="0" width="427" y="0" height="449"/></clipPath><clipPath id="7d2e1a5a07"><path d="M 77 343 L 411 343 L 411 658 L 77 658 Z M 77 343 " clip-rule="nonzero"/></clipPath><clipPath id="733b1ceaec"><path d="M 187.859375 340.066406 L 414.792969 506.832031 L 301.253906 661.339844 L 74.320312 494.578125 Z M 187.859375 340.066406 " clip-rule="nonzero"/></clipPath><clipPath id="dc1db0bd60"><path d="M 195.113281 345.398438 L 407.109375 501.183594 C 409.03125 502.597656 410.316406 504.714844 410.675781 507.078125 C 411.039062 509.4375 410.445312 511.84375 409.03125 513.765625 L 306.152344 653.769531 C 304.738281 655.691406 302.617188 656.976562 300.257812 657.335938 C 297.898438 657.695312 295.492188 657.105469 293.570312 655.691406 L 81.570312 499.90625 C 79.648438 498.492188 78.363281 496.371094 78.003906 494.011719 C 77.644531 491.652344 78.234375 489.246094 79.648438 487.324219 L 182.53125 347.320312 C 183.945312 345.398438 186.0625 344.113281 188.421875 343.753906 C 190.78125 343.390625 193.1875 343.984375 195.113281 345.398438 Z M 195.113281 345.398438 " clip-rule="nonzero"/></clipPath><clipPath id="2bd35b48a0"><path d="M 0.558594 0.199219 L 334 0.199219 L 334 314.839844 L 0.558594 314.839844 Z M 0.558594 0.199219 " clip-rule="nonzero"/></clipPath><clipPath id="964ffa4279"><path d="M 110.859375 -2.933594 L 337.792969 163.832031 L 224.253906 318.339844 L -2.679688 151.578125 Z M 110.859375 -2.933594 " clip-rule="nonzero"/></clipPath><clipPath id="904ff9744b"><path d="M 118.113281 2.398438 L 330.109375 158.183594 C 332.03125 159.597656 333.316406 161.714844 333.675781 164.078125 C 334.039062 166.4375 333.445312 168.84375 332.03125 170.765625 L 229.152344 310.769531 C 227.738281 312.691406 225.617188 313.976562 223.257812 314.335938 C 220.898438 314.695312 218.492188 314.105469 216.570312 312.691406 L 4.570312 156.90625 C 2.648438 155.492188 1.363281 153.371094 1.003906 151.011719 C 0.644531 148.652344 1.234375 146.246094 2.648438 144.324219 L 105.53125 4.320312 C 106.945312 2.398438 109.0625 1.113281 111.421875 0.753906 C 113.78125 0.390625 116.1875 0.984375 118.113281 2.398438 Z M 118.113281 2.398438 " clip-rule="nonzero"/></clipPath><clipPath id="9ded779109"><rect x="0" width="334" y="0" height="315"/></clipPath><clipPath id="1056cc5f1e"><path d="M 146 217 L 499 217 L 499 575 L 146 575 Z M 146 217 " clip-rule="nonzero"/></clipPath><clipPath id="19d7070b0f"><path d="M 302.296875 208.503906 L 507.085938 358.992188 L 341.902344 583.78125 L 137.113281 433.289062 Z M 302.296875 208.503906 " clip-rule="nonzero"/></clipPath><clipPath id="8178f7deac"><path d="M 319.824219 221.382812 L 489.558594 346.113281 C 499.238281 353.226562 501.320312 366.839844 494.207031 376.519531 L 355.074219 565.851562 C 347.960938 575.53125 334.347656 577.613281 324.667969 570.5 L 154.933594 445.769531 C 145.253906 438.65625 143.171875 425.042969 150.285156 415.363281 L 289.417969 226.027344 C 296.53125 216.347656 310.144531 214.269531 319.824219 221.382812 Z M 319.824219 221.382812 " clip-rule="nonzero"/></clipPath><clipPath id="d81431a1ef"><path d="M 0 0 L 353 0 L 353 358 L 0 358 Z M 0 0 " clip-rule="nonzero"/></clipPath><clipPath id="c834aa1726"><path d="M 156.296875 -8.496094 L 361.085938 141.992188 L 195.902344 366.78125 L -8.886719 216.289062 Z M 156.296875 -8.496094 " clip-rule="nonzero"/></clipPath><clipPath id="bbd939ca0e"><path d="M 173.824219 4.382812 L 343.558594 129.113281 C 353.238281 136.226562 355.320312 149.839844 348.207031 159.519531 L 209.074219 348.851562 C 201.960938 358.53125 188.347656 360.613281 178.667969 353.5 L 8.933594 228.769531 C -0.746094 221.65625 -2.828125 208.042969 4.285156 198.363281 L 143.417969 9.027344 C 150.53125 -0.652344 164.144531 -2.730469 173.824219 4.382812 Z M 173.824219 4.382812 " clip-rule="nonzero"/></clipPath><clipPath id="31cc1c5ffa"><rect x="0" width="353" y="0" height="358"/></clipPath><clipPath id="9ca1ea0bf5"><path d="M 98 276 L 457 276 L 457 639 L 98 639 Z M 98 276 " clip-rule="nonzero"/></clipPath><clipPath id="d728e4cf95"><path d="M 254.554688 271.796875 L 460.296875 422.984375 L 299.105469 642.335938 L 93.363281 491.148438 Z M 254.554688 271.796875 " clip-rule="nonzero"/></clipPath><clipPath id="127eeeec9a"><path d="M 262.019531 278.515625 L 452.453125 418.457031 C 454.378906 419.871094 455.660156 421.988281 456.023438 424.347656 C 456.382812 426.707031 455.792969 429.113281 454.378906 431.039062 L 304.804688 634.578125 C 303.390625 636.503906 301.273438 637.785156 298.914062 638.148438 C 296.554688 638.507812 294.148438 637.917969 292.222656 636.503906 L 101.785156 496.558594 C 99.863281 495.144531 98.578125 493.027344 98.21875 490.667969 C 97.859375 488.308594 98.449219 485.902344 99.863281 483.976562 L 249.4375 280.4375 C 250.847656 278.511719 252.96875 277.230469 255.328125 276.871094 C 257.6875 276.507812 260.09375 277.101562 262.019531 278.515625 Z M 262.019531 278.515625 " clip-rule="nonzero"/></clipPath><clipPath id="fcdf8aceb4"><path d="M 0 0.480469 L 358.519531 0.480469 L 358.519531 362.640625 L 0 362.640625 Z M 0 0.480469 " clip-rule="nonzero"/></clipPath><clipPath id="705a1c883c"><path d="M 156.554688 -4.203125 L 362.296875 146.984375 L 201.105469 366.335938 L -4.636719 215.148438 Z M 156.554688 -4.203125 " clip-rule="nonzero"/></clipPath><clipPath id="460656134e"><path d="M 164.019531 2.515625 L 354.453125 142.457031 C 356.378906 143.871094 357.660156 145.988281 358.023438 148.347656 C 358.382812 150.707031 357.792969 153.113281 356.378906 155.039062 L 206.804688 358.578125 C 205.390625 360.503906 203.273438 361.785156 200.914062 362.148438 C 198.554688 362.507812 196.148438 361.917969 194.222656 360.503906 L 3.785156 220.558594 C 1.863281 219.144531 0.578125 217.027344 0.21875 214.667969 C -0.140625 212.308594 0.449219 209.902344 1.863281 207.976562 L 151.4375 4.4375 C 152.847656 2.511719 154.96875 1.230469 157.328125 0.871094 C 159.6875 0.507812 162.09375 1.101562 164.019531 2.515625 Z M 164.019531 2.515625 " clip-rule="nonzero"/></clipPath><clipPath id="619ec298e3"><rect x="0" width="359" y="0" height="363"/></clipPath><clipPath id="ace857b58f"><path d="M 232 264 L 471 264 L 471 446 L 232 446 Z M 232 264 " clip-rule="nonzero"/></clipPath><clipPath id="1e35b27458"><path d="M 243.609375 264.203125 L 470.109375 430.648438 L 459.125 445.597656 L 232.621094 279.152344 Z M 243.609375 264.203125 " clip-rule="nonzero"/></clipPath><clipPath id="827a852731"><path d="M 0.601562 0 L 238.199219 0 L 238.199219 181.679688 L 0.601562 181.679688 Z M 0.601562 0 " clip-rule="nonzero"/></clipPath><clipPath id="b3428fe207"><path d="M 11.609375 0.203125 L 238.109375 166.648438 L 227.125 181.597656 L 0.621094 15.152344 Z M 11.609375 0.203125 " clip-rule="nonzero"/></clipPath><clipPath id="75d590d5b8"><rect x="0" width="239" y="0" height="182"/></clipPath><clipPath id="5b292a5751"><path d="M 154 374 L 387 374 L 387 551 L 154 551 Z M 154 374 " clip-rule="nonzero"/></clipPath><clipPath id="279965b44e"><path d="M 164.835938 374.613281 L 386.3125 537.363281 L 376.300781 550.992188 L 154.824219 388.238281 Z M 164.835938 374.613281 " clip-rule="nonzero"/></clipPath><clipPath id="1262e80522"><path d="M 0.601562 0.398438 L 232.441406 0.398438 L 232.441406 177 L 0.601562 177 Z M 0.601562 0.398438 " clip-rule="nonzero"/></clipPath><clipPath id="03320af529"><path d="M 10.835938 0.613281 L 232.3125 163.363281 L 222.300781 176.992188 L 0.824219 14.238281 Z M 10.835938 0.613281 " clip-rule="nonzero"/></clipPath><clipPath id="a000afba80"><rect x="0" width="233" y="0" height="177"/></clipPath><clipPath id="3d1aa9bc2a"><path d="M 205 320 L 259 320 L 259 384 L 205 384 Z M 205 320 " clip-rule="nonzero"/></clipPath><clipPath id="c7d1b8b050"><path d="M 202.316406 374.300781 L 244.574219 316.792969 L 261.894531 329.519531 L 219.636719 387.027344 Z M 202.316406 374.300781 " clip-rule="nonzero"/></clipPath><clipPath id="8fb24d934a"><path d="M 207.644531 367.046875 L 239.199219 324.109375 C 242.144531 320.101562 247.777344 319.242188 251.78125 322.1875 L 254.597656 324.253906 C 258.601562 327.195312 259.460938 332.832031 256.519531 336.835938 L 224.964844 379.773438 C 222.023438 383.78125 216.390625 384.640625 212.382812 381.695312 L 209.570312 379.628906 C 205.5625 376.683594 204.703125 371.050781 207.644531 367.046875 Z M 207.644531 367.046875 " clip-rule="nonzero"/></clipPath><clipPath id="0807c03e81"><path d="M 0 0 L 54 0 L 54 64 L 0 64 Z M 0 0 " clip-rule="nonzero"/></clipPath><clipPath id="a5e77b1106"><path d="M -2.683594 54.300781 L 39.574219 -3.207031 L 56.894531 9.519531 L 14.636719 67.027344 Z M -2.683594 54.300781 " clip-rule="nonzero"/></clipPath><clipPath id="c6dad427ec"><path d="M 2.644531 47.046875 L 34.199219 4.109375 C 37.144531 0.101562 42.777344 -0.757812 46.78125 2.1875 L 49.597656 4.253906 C 53.601562 7.195312 54.460938 12.832031 51.519531 16.835938 L 19.964844 59.773438 C 17.023438 63.78125 11.390625 64.640625 7.382812 61.695312 L 4.570312 59.628906 C 0.5625 56.683594 -0.296875 51.050781 2.644531 47.046875 Z M 2.644531 47.046875 " clip-rule="nonzero"/></clipPath><clipPath id="aaa7b0d000"><rect x="0" width="54" y="0" height="64"/></clipPath><clipPath id="4b3ed2a648"><path d="M 127 427 L 180 427 L 180 491 L 127 491 Z M 127 427 " clip-rule="nonzero"/></clipPath><clipPath id="4e06f4628b"><path d="M 124.007812 480.867188 L 166.265625 423.363281 L 183.582031 436.089844 L 141.324219 493.59375 Z M 124.007812 480.867188 " clip-rule="nonzero"/></clipPath><clipPath id="d746c8b88f"><path d="M 129.335938 473.613281 L 160.890625 430.675781 C 163.832031 426.671875 169.464844 425.808594 173.46875 428.753906 L 176.285156 430.820312 C 180.289062 433.765625 181.152344 439.398438 178.207031 443.402344 L 146.65625 486.339844 C 143.710938 490.347656 138.078125 491.207031 134.074219 488.265625 L 131.257812 486.195312 C 127.253906 483.253906 126.390625 477.621094 129.335938 473.613281 Z M 129.335938 473.613281 " clip-rule="nonzero"/></clipPath><clipPath id="9be1a8a3d5"><path d="M 0 0 L 53 0 L 53 64 L 0 64 Z M 0 0 " clip-rule="nonzero"/></clipPath><clipPath id="e5447db47f"><path d="M -2.992188 53.867188 L 39.265625 -3.636719 L 56.582031 9.089844 L 14.324219 66.59375 Z M -2.992188 53.867188 " clip-rule="nonzero"/></clipPath><clipPath id="0966b4b616"><path d="M 2.335938 46.613281 L 33.890625 3.675781 C 36.832031 -0.328125 42.464844 -1.191406 46.46875 1.753906 L 49.285156 3.820312 C 53.289062 6.765625 54.152344 12.398438 51.207031 16.402344 L 19.65625 59.339844 C 16.710938 63.347656 11.078125 64.207031 7.074219 61.265625 L 4.257812 59.195312 C 0.253906 56.253906 -0.609375 50.621094 2.335938 46.613281 Z M 2.335938 46.613281 " clip-rule="nonzero"/></clipPath><clipPath id="db6b5d12a6"><rect x="0" width="53" y="0" height="64"/></clipPath><clipPath id="1b6218d5bc"><path d="M 372 0 L 697 0 L 697 269 L 372 269 Z M 372 0 " clip-rule="nonzero"/></clipPath><clipPath id="a574a4c4f4"><path d="M 167 570 L 301 570 L 301 593 L 167 593 Z M 167 570 " clip-rule="nonzero"/></clipPath><clipPath id="b1b6cf7bfa"><path d="M 301.136719 579.800781 L 299.632812 601.390625 L 166.976562 592.140625 L 168.480469 570.550781 Z M 301.136719 579.800781 " clip-rule="nonzero"/></clipPath><clipPath id="4d7d2634eb"><path d="M 300.382812 590.59375 L 167.007812 592.144531 L 168.511719 570.554688 Z M 300.382812 590.59375 " clip-rule="nonzero"/></clipPath><clipPath id="82ae5a0010"><path d="M 0 0.480469 L 133.519531 0.480469 L 133.519531 22.320312 L 0 22.320312 Z M 0 0.480469 " clip-rule="nonzero"/></clipPath><clipPath id="ac1902f6da"><path d="M 134.136719 9.800781 L 132.632812 31.390625 L -0.0234375 22.140625 L 1.480469 0.550781 Z M 134.136719 9.800781 " clip-rule="nonzero"/></clipPath><clipPath id="83818c71db"><path d="M 133.382812 20.59375 L 0.0078125 22.144531 L 1.511719 0.554688 Z M 133.382812 20.59375 " clip-rule="nonzero"/></clipPath><clipPath id="4c400f7b1e"><rect x="0" width="134" y="0" height="23"/></clipPath><clipPath id="2c5fcbdbea"><path d="M 163 611 L 298 611 L 298 634 L 163 634 Z M 163 611 " clip-rule="nonzero"/></clipPath><clipPath id="ecbf8079e3"><path d="M 298.109375 620.992188 L 296.605469 642.582031 L 163.949219 633.332031 L 165.453125 611.746094 Z M 298.109375 620.992188 " clip-rule="nonzero"/></clipPath><clipPath id="d236dae37c"><path d="M 297.355469 631.789062 L 163.980469 633.335938 L 165.484375 611.746094 Z M 297.355469 631.789062 " clip-rule="nonzero"/></clipPath><clipPath id="69f9eb20e4"><path d="M 0.960938 0.519531 L 134.398438 0.519531 L 134.398438 22.359375 L 0.960938 22.359375 Z M 0.960938 0.519531 " clip-rule="nonzero"/></clipPath><clipPath id="f8623c08ca"><path d="M 135.109375 9.992188 L 133.605469 31.582031 L 0.949219 22.332031 L 2.453125 0.746094 Z M 135.109375 9.992188 " clip-rule="nonzero"/></clipPath><clipPath id="9fe8e19225"><path d="M 134.355469 20.789062 L 0.980469 22.335938 L 2.484375 0.746094 Z M 134.355469 20.789062 " clip-rule="nonzero"/></clipPath><clipPath id="5b98df0da4"><rect x="0" width="135" y="0" height="23"/></clipPath><clipPath id="ba29915a5c"><path d="M 182 582 L 335 582 L 335 634 L 182 634 Z M 182 582 " clip-rule="nonzero"/></clipPath><clipPath id="6ae27a3210"><path d="M 183.902344 581.46875 L 335.554688 592.042969 L 332.605469 634.332031 L 180.953125 623.761719 Z M 183.902344 581.46875 " clip-rule="nonzero"/></clipPath><clipPath id="2ed56c7136"><path d="M 201.113281 582.667969 L 318.265625 590.835938 C 327.769531 591.5 334.9375 599.742188 334.273438 609.246094 L 333.726562 617.117188 C 333.0625 626.621094 324.820312 633.789062 315.316406 633.128906 L 198.164062 624.960938 C 188.660156 624.296875 181.492188 616.054688 182.15625 606.550781 L 182.703125 598.675781 C 183.367188 589.171875 191.609375 582.007812 201.113281 582.667969 Z M 201.113281 582.667969 " clip-rule="nonzero"/></clipPath><clipPath id="4e99d44f40"><path d="M 0 0 L 153 0 L 153 51.839844 L 0 51.839844 Z M 0 0 " clip-rule="nonzero"/></clipPath><clipPath id="c7b371a05d"><path d="M 1.902344 -0.53125 L 153.554688 10.042969 L 150.605469 52.332031 L -1.046875 41.761719 Z M 1.902344 -0.53125 " clip-rule="nonzero"/></clipPath><clipPath id="c6849b6b6d"><path d="M 19.113281 0.667969 L 136.265625 8.835938 C 145.769531 9.5 152.9375 17.742188 152.273438 27.246094 L 151.726562 35.117188 C 151.0625 44.621094 142.820312 51.789062 133.316406 51.128906 L 16.164062 42.960938 C 6.660156 42.296875 -0.507812 34.054688 0.15625 24.550781 L 0.703125 16.675781 C 1.367188 7.171875 9.609375 0.0078125 19.113281 0.667969 Z M 19.113281 0.667969 " clip-rule="nonzero"/></clipPath><clipPath id="c1dca6c192"><rect x="0" width="153" y="0" height="52"/></clipPath><clipPath id="bf9df239f8"><path d="M 316 559 L 469 559 L 469 677 L 316 677 Z M 316 559 " clip-rule="nonzero"/></clipPath><clipPath id="d2ddb49872"><path d="M 472.289062 564.757812 L 464.125 681.851562 L 312.269531 671.265625 L 320.429688 554.171875 Z M 472.289062 564.757812 " clip-rule="nonzero"/></clipPath><clipPath id="f51a390f9b"><path d="M 468.207031 623.304688 C 470.460938 590.972656 438.359375 562.394531 396.503906 559.476562 C 354.648438 556.558594 318.890625 580.402344 316.636719 612.738281 C 314.382812 645.074219 346.484375 673.652344 388.339844 676.570312 C 430.195312 679.488281 465.953125 655.640625 468.207031 623.304688 Z M 468.207031 623.304688 " clip-rule="nonzero"/></clipPath><clipPath id="17a23f9b8a"><path d="M 0 0 L 153 0 L 153 118 L 0 118 Z M 0 0 " clip-rule="nonzero"/></clipPath><clipPath id="a400039e06"><path d="M 156.289062 5.757812 L 148.125 122.851562 L -3.730469 112.265625 L 4.429688 -4.828125 Z M 156.289062 5.757812 " clip-rule="nonzero"/></clipPath><clipPath id="6f71b0237a"><path d="M 152.207031 64.304688 C 154.460938 31.972656 122.359375 3.394531 80.503906 0.476562 C 38.648438 -2.441406 2.890625 21.402344 0.636719 53.738281 C -1.617188 86.074219 30.484375 114.652344 72.339844 117.570312 C 114.195312 120.488281 149.953125 96.640625 152.207031 64.304688 Z M 152.207031 64.304688 " clip-rule="nonzero"/></clipPath><clipPath id="84e8c955b0"><rect x="0" width="153" y="0" height="118"/></clipPath><clipPath id="7aa30ba364"><path d="M 403 585 L 482 585 L 482 647 L 403 647 Z M 403 585 " clip-rule="nonzero"/></clipPath><clipPath id="3bacf18124"><path d="M 483.578125 588.082031 L 479.296875 649.507812 L 400.835938 644.035156 L 405.117188 582.609375 Z M 483.578125 588.082031 " clip-rule="nonzero"/></clipPath><clipPath id="94ecb11437"><path d="M 481.4375 618.792969 C 482.621094 601.832031 466.058594 586.859375 444.449219 585.351562 C 422.835938 583.847656 404.359375 596.375 403.175781 613.335938 C 401.996094 630.300781 418.554688 645.273438 440.167969 646.777344 C 461.777344 648.285156 480.253906 635.753906 481.4375 618.792969 Z M 481.4375 618.792969 " clip-rule="nonzero"/></clipPath><clipPath id="b69a715af8"><path d="M 0 0 L 79 0 L 79 62 L 0 62 Z M 0 0 " clip-rule="nonzero"/></clipPath><clipPath id="5ef9079b81"><path d="M 80.578125 3.082031 L 76.296875 64.507812 L -2.164062 59.035156 L 2.117188 -2.390625 Z M 80.578125 3.082031 " clip-rule="nonzero"/></clipPath><clipPath id="f5ea447870"><path d="M 78.4375 33.792969 C 79.621094 16.832031 63.058594 1.859375 41.449219 0.351562 C 19.835938 -1.152344 1.359375 11.375 0.175781 28.335938 C -1.003906 45.300781 15.554688 60.273438 37.167969 61.777344 C 58.777344 63.285156 77.253906 50.753906 78.4375 33.792969 Z M 78.4375 33.792969 " clip-rule="nonzero"/></clipPath><clipPath id="9287cf7d55"><rect x="0" width="79" y="0" height="62"/></clipPath><clipPath id="e76b3dd9d2"><path d="M 125 564 L 197 564 L 197 644 L 125 644 Z M 125 564 " clip-rule="nonzero"/></clipPath><clipPath id="664a11dca0"><path d="M 122.109375 636.847656 L 129.230469 561.855469 L 196.359375 568.230469 L 189.238281 643.222656 Z M 122.109375 636.847656 " clip-rule="nonzero"/></clipPath><clipPath id="9341023553"><path d="M 126.050781 612.074219 C 125.464844 608.164062 125.253906 603.738281 125.660156 599.460938 C 126.066406 595.1875 126.992188 591.125 128.300781 587.421875 C 128.339844 587.34375 128.347656 587.265625 128.386719 587.1875 C 133.539062 573.3125 144.582031 563.777344 156.335938 564.691406 L 196.335938 568.488281 L 189.238281 643.222656 L 149.269531 639.429688 C 137.460938 638.105469 128.398438 626.824219 126.050781 612.074219 Z M 126.050781 612.074219 " clip-rule="nonzero"/></clipPath><clipPath id="d315ddf88c"><path d="M 0.078125 0 L 71.359375 0 L 71.359375 79.441406 L 0.078125 79.441406 Z M 0.078125 0 " clip-rule="nonzero"/></clipPath><clipPath id="81b48d4fd9"><path d="M -2.890625 72.847656 L 4.230469 -2.144531 L 71.359375 4.230469 L 64.238281 79.222656 Z M -2.890625 72.847656 " clip-rule="nonzero"/></clipPath><clipPath id="dc6ecf6687"><path d="M 1.050781 48.074219 C 0.464844 44.164062 0.253906 39.738281 0.660156 35.460938 C 1.066406 31.1875 1.992188 27.125 3.300781 23.421875 C 3.339844 23.34375 3.347656 23.265625 3.386719 23.1875 C 8.539062 9.3125 19.582031 -0.222656 31.335938 0.691406 L 71.335938 4.488281 L 64.238281 79.222656 L 24.269531 75.429688 C 12.460938 74.105469 3.398438 62.824219 1.050781 48.074219 Z M 1.050781 48.074219 " clip-rule="nonzero"/></clipPath><clipPath id="24e414720c"><rect x="0" width="72" y="0" height="80"/></clipPath><clipPath id="397cf44b4d"><path d="M 233 554 L 549 554 L 549 750 L 233 750 Z M 233 554 " clip-rule="nonzero"/></clipPath><clipPath id="c53fcf0c7a"><rect x="0" width="721" y="0" height="750"/></clipPath></defs><g transform="matrix(1, 0, 0, 1, 29, -0.000000000000042435)"><g clip-path="url(#c53fcf0c7a)"><g clip-path="url(#cc74bd8067)"><g clip-path="url(#8b0a4ac636)"><g clip-path="url(#59ffe4060e)"><g transform="matrix(1, 0, 0, 1, 300, 185)"><g clip-path="url(#5d80ec189e)"><g clip-path="url(#7429ed19c4)"><g clip-path="url(#ece88d026e)"><g clip-path="url(#f3c7706669)"><path fill="#185936" d="M 67.011719 -12.097656 L 226.160156 104.851562 L 147.578125 211.78125 L -11.566406 94.835938 Z M 67.011719 -12.097656 " fill-opacity="1" fill-rule="nonzero"/></g></g></g></g></g></g></g></g><g clip-path="url(#564940be2b)"><g clip-path="url(#e4660d58c4)"><g clip-path="url(#dd890bc565)"><g transform="matrix(1, 0, 0, 1, 309, 204)"><g clip-path="url(#b11fad70f5)"><g clip-path="url(#d94394ec78)"><g clip-path="url(#beb92de357)"><g clip-path="url(#52cb9a17af)"><path fill="#fb801c" d="M 62.53125 -8.414062 L 194.007812 88.203125 L 122.730469 185.203125 L -8.75 88.585938 Z M 62.53125 -8.414062 " fill-opacity="1" fill-rule="nonzero"/></g></g></g></g></g></g></g></g><g clip-path="url(#057ca9874c)"><g clip-path="url(#0ac535d224)"><g clip-path="url(#694ac068e4)"><g transform="matrix(1, 0, 0, 1, 88, 199)"><g clip-path="url(#1f8daf23b8)"><g clip-path="url(#858d7c25fe)"><g clip-path="url(#7a37ae8df8)"><g clip-path="url(#857b380672)"><path fill="#185936" d="M 212.984375 -12.875 L 439.488281 153.570312 L 213.226562 461.472656 L -13.277344 295.027344 Z M 212.984375 -12.875 " fill-opacity="1" fill-rule="nonzero"/></g></g></g></g></g></g></g></g><g clip-path="url(#7d2e1a5a07)"><g clip-path="url(#733b1ceaec)"><g clip-path="url(#dc1db0bd60)"><g transform="matrix(1, 0, 0, 1, 77, 343)"><g clip-path="url(#9ded779109)"><g clip-path="url(#2bd35b48a0)"><g clip-path="url(#964ffa4279)"><g clip-path="url(#904ff9744b)"><path fill="#185936" d="M 110.859375 -2.933594 L 337.191406 163.386719 L 223.648438 317.894531 L -2.679688 151.578125 Z M 110.859375 -2.933594 " fill-opacity="1" fill-rule="nonzero"/></g></g></g></g></g></g></g></g><g clip-path="url(#1056cc5f1e)"><g clip-path="url(#19d7070b0f)"><g clip-path="url(#8178f7deac)"><g transform="matrix(1, 0, 0, 1, 146, 217)"><g clip-path="url(#31cc1c5ffa)"><g clip-path="url(#d81431a1ef)"><g clip-path="url(#c834aa1726)"><g clip-path="url(#bbd939ca0e)"><path fill="#f6a934" d="M 156.296875 -8.496094 L 361.085938 141.992188 L 195.902344 366.78125 L -8.886719 216.289062 Z M 156.296875 -8.496094 " fill-opacity="1" fill-rule="nonzero"/></g></g></g></g></g></g></g></g><g clip-path="url(#9ca1ea0bf5)"><g clip-path="url(#d728e4cf95)"><g clip-path="url(#127eeeec9a)"><g transform="matrix(1, 0, 0, 1, 98, 276)"><g clip-path="url(#619ec298e3)"><g clip-path="url(#fcdf8aceb4)"><g clip-path="url(#705a1c883c)"><g clip-path="url(#460656134e)"><path fill="#72a94b" d="M 156.765625 -2.816406 L 361.707031 147.785156 L 201.691406 365.539062 L -3.25 214.933594 Z M 156.765625 -2.816406 " fill-opacity="1" fill-rule="nonzero"/></g></g></g></g></g></g></g></g><g clip-path="url(#ace857b58f)"><g clip-path="url(#1e35b27458)"><g transform="matrix(1, 0, 0, 1, 232, 264)"><g clip-path="url(#75d590d5b8)"><g clip-path="url(#827a852731)"><g clip-path="url(#b3428fe207)"><path fill="#185936" d="M 11.609375 0.203125 L 238.121094 166.65625 L 227.136719 181.605469 L 0.621094 15.152344 Z M 11.609375 0.203125 " fill-opacity="1" fill-rule="nonzero"/></g></g></g></g></g></g><g clip-path="url(#5b292a5751)"><g clip-path="url(#279965b44e)"><g transform="matrix(1, 0, 0, 1, 154, 374)"><g clip-path="url(#a000afba80)"><g clip-path="url(#1262e80522)"><g clip-path="url(#03320af529)"><path fill="#185936" d="M 10.835938 0.613281 L 232.304688 163.359375 L 222.289062 176.984375 L 0.824219 14.238281 Z M 10.835938 0.613281 " fill-opacity="1" fill-rule="nonzero"/></g></g></g></g></g></g><g clip-path="url(#3d1aa9bc2a)"><g clip-path="url(#c7d1b8b050)"><g clip-path="url(#8fb24d934a)"><g transform="matrix(1, 0, 0, 1, 205, 320)"><g clip-path="url(#aaa7b0d000)"><g clip-path="url(#0807c03e81)"><g clip-path="url(#a5e77b1106)"><g clip-path="url(#c6dad427ec)"><path fill="#9cc654" d="M -2.683594 54.300781 L 39.523438 -3.136719 L 56.84375 9.589844 L 14.636719 67.027344 Z M -2.683594 54.300781 " fill-opacity="1" fill-rule="nonzero"/></g></g></g></g></g></g></g></g><g clip-path="url(#4b3ed2a648)"><g clip-path="url(#4e06f4628b)"><g clip-path="url(#d746c8b88f)"><g transform="matrix(1, 0, 0, 1, 127, 427)"><g clip-path="url(#db6b5d12a6)"><g clip-path="url(#9be1a8a3d5)"><g clip-path="url(#e5447db47f)"><g clip-path="url(#0966b4b616)"><path fill="#9cc654" d="M -2.992188 53.867188 L 39.214844 -3.570312 L 56.535156 9.15625 L 14.324219 66.59375 Z M -2.992188 53.867188 " fill-opacity="1" fill-rule="nonzero"/></g></g></g></g></g></g></g></g><path stroke-linecap="round" transform="matrix(0.68031, -0.617249, 0.617249, 0.68031, 416.536005, 186.085734)" fill="none" stroke-linejoin="miter" d="M 18.090594 30.693995 C 49.71551 6.413001 81.178854 6.434265 112.483775 30.760647 " stroke="#fb801c" stroke-width="25" stroke-opacity="1" stroke-miterlimit="4"/><g clip-path="url(#1b6218d5bc)"><path stroke-linecap="round" transform="matrix(-0.68031, 0.617249, -0.617249, -0.68031, 598.16802, 90.156248)" fill="none" stroke-linejoin="miter" d="M 18.091469 30.694489 C 49.713236 6.410636 81.17973 6.434758 112.484651 30.76114 " stroke="#fb801c" stroke-width="25" stroke-opacity="1" stroke-miterlimit="4"/></g><path stroke-linecap="round" transform="matrix(0.68031, -0.617249, 0.617249, 0.68031, 482.053074, 205.603575)" fill="none" stroke-linejoin="miter" d="M 13.04543 22.203028 C 33.892284 4.599227 54.619354 4.600393 75.238359 22.199936 " stroke="#fb801c" stroke-width="18" stroke-opacity="1" stroke-miterlimit="4"/><path stroke-linecap="round" transform="matrix(-0.68031, 0.617249, -0.617249, -0.68031, 605.994036, 143.33474)" fill="none" stroke-linejoin="miter" d="M 13.04788 22.200707 C 33.891877 4.600056 54.621804 4.598073 75.237952 22.200764 " stroke="#fb801c" stroke-width="18" stroke-opacity="1" stroke-miterlimit="4"/><g clip-path="url(#a574a4c4f4)"><g clip-path="url(#b1b6cf7bfa)"><g clip-path="url(#4d7d2634eb)"><g transform="matrix(1, 0, 0, 1, 167, 570)"><g clip-path="url(#4c400f7b1e)"><g clip-path="url(#82ae5a0010)"><g clip-path="url(#ac1902f6da)"><g clip-path="url(#83818c71db)"><path fill="#fb801c" d="M 134.136719 9.800781 L 132.632812 31.390625 L -0.0234375 22.140625 L 1.480469 0.550781 Z M 134.136719 9.800781 " fill-opacity="1" fill-rule="nonzero"/></g></g></g></g></g></g></g></g><g clip-path="url(#2c5fcbdbea)"><g clip-path="url(#ecbf8079e3)"><g clip-path="url(#d236dae37c)"><g transform="matrix(1, 0, 0, 1, 163, 611)"><g clip-path="url(#5b98df0da4)"><g clip-path="url(#69f9eb20e4)"><g clip-path="url(#f8623c08ca)"><g clip-path="url(#9fe8e19225)"><path fill="#fb801c" d="M 135.109375 9.992188 L 133.605469 31.582031 L 0.949219 22.332031 L 2.453125 0.746094 Z M 135.109375 9.992188 " fill-opacity="1" fill-rule="nonzero"/></g></g></g></g></g></g></g></g><g clip-path="url(#ba29915a5c)"><g clip-path="url(#6ae27a3210)"><g clip-path="url(#2ed56c7136)"><g transform="matrix(1, 0, 0, 1, 182, 582)"><g clip-path="url(#c1dca6c192)"><g clip-path="url(#4e99d44f40)"><g clip-path="url(#c7b371a05d)"><g clip-path="url(#c6849b6b6d)"><path fill="#fb801c" d="M 1.902344 -0.53125 L 153.554688 10.042969 L 150.605469 52.332031 L -1.046875 41.761719 Z M 1.902344 -0.53125 " fill-opacity="1" fill-rule="nonzero"/></g></g></g></g></g></g></g></g><g clip-path="url(#bf9df239f8)"><g clip-path="url(#d2ddb49872)"><g clip-path="url(#f51a390f9b)"><g transform="matrix(1, 0, 0, 1, 316, 559)"><g clip-path="url(#84e8c955b0)"><g clip-path="url(#17a23f9b8a)"><g clip-path="url(#a400039e06)"><g clip-path="url(#6f71b0237a)"><path fill="#fb801c" d="M 156.289062 5.757812 L 148.125 122.851562 L -3.273438 112.296875 L 4.886719 -4.796875 Z M 156.289062 5.757812 " fill-opacity="1" fill-rule="nonzero"/></g></g></g></g></g></g></g></g><g clip-path="url(#7aa30ba364)"><g clip-path="url(#3bacf18124)"><g clip-path="url(#94ecb11437)"><g transform="matrix(1, 0, 0, 1, 403, 585)"><g clip-path="url(#9287cf7d55)"><g clip-path="url(#b69a715af8)"><g clip-path="url(#5ef9079b81)"><g clip-path="url(#f5ea447870)"><path fill="#fb801c" d="M 80.578125 3.082031 L 76.296875 64.507812 L -1.925781 59.054688 L 2.359375 -2.371094 Z M 80.578125 3.082031 " fill-opacity="1" fill-rule="nonzero"/></g></g></g></g></g></g></g></g><path stroke-linecap="round" transform="matrix(0.917828, 0.0375544, -0.0375544, 0.917828, 307.853345, 552.801137)" fill="none" stroke-linejoin="miter" d="M 10.655652 41.101902 C 67.733686 -3.69962 124.138031 -3.700757 179.873111 41.102568 " stroke="#185936" stroke-width="15" stroke-opacity="1" stroke-miterlimit="4"/><path stroke-linecap="round" transform="matrix(-0.00976418, 0.918544, -0.918544, -0.00976418, 490.377785, 586.941447)" fill="none" stroke-linejoin="miter" d="M 10.830008 21.066125 C 28.136773 2.918943 45.60307 2.979929 63.224513 21.236371 " stroke="#185936" stroke-width="15" stroke-opacity="1" stroke-miterlimit="4"/><g clip-path="url(#e76b3dd9d2)"><g clip-path="url(#664a11dca0)"><g clip-path="url(#9341023553)"><g transform="matrix(1, 0, 0, 1, 125, 564)"><g clip-path="url(#24e414720c)"><g clip-path="url(#d315ddf88c)"><g clip-path="url(#81b48d4fd9)"><g clip-path="url(#dc6ecf6687)"><path fill="#fb801c" d="M -2.890625 72.847656 L 4.207031 -1.882812 L 71.335938 4.492188 L 64.238281 79.222656 Z M -2.890625 72.847656 " fill-opacity="1" fill-rule="nonzero"/></g></g></g></g></g></g></g></g><path stroke-linecap="round" transform="matrix(0.9057, 0.153384, -0.153384, 0.9057, 144.543754, 554.376017)" fill="none" stroke-linejoin="miter" d="M 7.501688 7.501005 C 68.780143 7.500256 130.058598 7.499507 191.337053 7.498758 " stroke="#185936" stroke-width="15" stroke-opacity="1" stroke-miterlimit="4"/><path stroke-linecap="round" transform="matrix(-0.918078, 0.0308516, -0.0308516, -0.918078, 317.115844, 639.773605)" fill="none" stroke-linejoin="miter" d="M 7.600836 7.501553 C 68.129805 7.501804 128.658774 7.502055 189.187885 7.498056 " stroke="#185936" stroke-width="15" stroke-opacity="1" stroke-miterlimit="4"/><path stroke-linecap="round" transform="matrix(-0.104094, 0.912679, -0.912679, -0.104094, 160.915197, 553.468001)" fill="none" stroke-linejoin="miter" d="M 10.6964 10.431392 C 38.512061 41.841171 66.375845 41.813271 94.286786 10.339242 " stroke="#185936" stroke-width="15" stroke-opacity="1" stroke-miterlimit="4"/><g clip-path="url(#397cf44b4d)"><path stroke-linecap="round" transform="matrix(0.915781, 0.0718564, -0.0718564, 0.915781, 302.855796, 622.073078)" fill="none" stroke-linejoin="miter" d="M 10.682865 10.577454 C 67.722028 59.245561 125.468642 59.197521 183.918136 10.429426 " stroke="#185936" stroke-width="15" stroke-opacity="1" stroke-miterlimit="4"/></g></g></g></svg>